<svg width="50" height="50" viewBox="0 0 50 50" fill="none" xmlns="http://www.w3.org/2000/svg">
<rect width="50" height="50" rx="10" fill="#373C59"/>
<path d="M30.0418 24.6723L36.4553 18.4258C37.8482 17.0691 37.8482 14.8743 36.4553 13.5175C35.0623 12.1608 32.804 12.1608 31.411 13.5175L24.9976 19.7594L18.589 13.5175C17.196 12.1608 14.9377 12.1608 13.5447 13.5175C12.1518 14.8743 12.1518 17.0691 13.5447 18.4258L19.9582 24.6723L13.5447 30.9188C12.1518 32.2755 12.1518 34.4704 13.5447 35.8271C14.2436 36.5078 15.1564 36.8458 16.0692 36.8458C16.9773 36.8458 17.8901 36.5078 18.589 35.8271L24.9976 29.5852L31.411 35.8271C32.1099 36.5078 33.018 36.8458 33.9308 36.8458C34.8436 36.8458 35.7564 36.5078 36.4553 35.8271C37.8482 34.4704 37.8482 32.2755 36.4553 30.9188L30.0418 24.6723Z" fill="#F14949"/>
</svg>
