<svg width="30" height="30" viewBox="0 0 30 30" fill="none" xmlns="http://www.w3.org/2000/svg">
<path d="M21.0502 14.6068L28.7463 7.11099C30.4179 5.48292 30.4179 2.84912 28.7463 1.22105C27.0747 -0.407017 24.3648 -0.407017 22.6933 1.22105L14.9971 8.71128L7.30674 1.22105C5.63516 -0.407017 2.92526 -0.407017 1.25368 1.22105C-0.417895 2.84912 -0.417895 5.48292 1.25368 7.11099L8.9498 14.6068L1.25368 22.1026C-0.417895 23.7306 -0.417895 26.3644 1.25368 27.9925C2.09233 28.8093 3.1877 29.2149 4.28307 29.2149C5.37273 29.2149 6.4681 28.8093 7.30674 27.9925L14.9971 20.5023L22.6933 27.9925C23.5319 28.8093 24.6216 29.2149 25.7169 29.2149C26.8123 29.2149 27.9077 28.8093 28.7463 27.9925C30.4179 26.3644 30.4179 23.7306 28.7463 22.1026L21.0502 14.6068Z" fill="#E14646"/>
</svg>
