<svg width="60" height="60" viewBox="0 0 60 60" fill="none" xmlns="http://www.w3.org/2000/svg">
<rect width="60" height="60" rx="10" fill="#282E50"/>
<path d="M36.0502 29.6068L43.7463 22.111C45.4179 20.4829 45.4179 17.8491 43.7463 16.2211C42.0747 14.593 39.3648 14.593 37.6933 16.2211L29.9971 23.7113L22.3067 16.2211C20.6352 14.593 17.9253 14.593 16.2537 16.2211C14.5821 17.8491 14.5821 20.4829 16.2537 22.111L23.9498 29.6068L16.2537 37.1026C14.5821 38.7306 14.5821 41.3644 16.2537 42.9925C17.0923 43.8093 18.1877 44.2149 19.2831 44.2149C20.3727 44.2149 21.4681 43.8093 22.3067 42.9925L29.9971 35.5023L37.6933 42.9925C38.5319 43.8093 39.6216 44.2149 40.7169 44.2149C41.8123 44.2149 42.9077 43.8093 43.7463 42.9925C45.4179 41.3644 45.4179 38.7306 43.7463 37.1026L36.0502 29.6068Z" fill="#FF8585"/>
</svg>
