<svg width="36" height="36" viewBox="0 0 36 36" fill="none" xmlns="http://www.w3.org/2000/svg">
<path d="M25.2602 17.5281L34.4956 8.53319C36.5015 6.57951 36.5015 3.41894 34.4956 1.46526C32.4897 -0.48842 29.2378 -0.48842 27.2319 1.46526L17.9966 10.4535L8.76809 1.46526C6.76219 -0.48842 3.51032 -0.48842 1.50442 1.46526C-0.501474 3.41894 -0.501474 6.57951 1.50442 8.53319L10.7398 17.5281L1.50442 26.5231C-0.501474 28.4767 -0.501474 31.6373 1.50442 33.591C2.51079 34.5712 3.82524 35.0579 5.13968 35.0579C6.44728 35.0579 7.76172 34.5712 8.76809 33.591L17.9966 24.6027L27.2319 33.591C28.2383 34.5712 29.5459 35.0579 30.8603 35.0579C32.1748 35.0579 33.4892 34.5712 34.4956 33.591C36.5015 31.6373 36.5015 28.4767 34.4956 26.5231L25.2602 17.5281Z" fill="#C8CCE4"/>
</svg>
